<mxfile host="app.diagrams.net" modified="2021-05-07T02:41:09.620Z" agent="5.0 (Macintosh; Intel Mac OS X 10_15_7) AppleWebKit/537.36 (KHTML, like Gecko) Chrome/90.0.4430.93 Safari/537.36" etag="vvWqhSDR4V6B2Qf7sqZN" version="14.6.10" type="github">
  <diagram id="C5RBs43oDa-KdzZeNtuy" name="Page-1">
    <mxGraphModel dx="946" dy="614" grid="1" gridSize="17" guides="1" tooltips="1" connect="1" arrows="1" fold="1" page="1" pageScale="1" pageWidth="827" pageHeight="1169" math="0" shadow="0">
      <root>
        <mxCell id="WIyWlLk6GJQsqaUBKTNV-0" />
        <mxCell id="WIyWlLk6GJQsqaUBKTNV-1" parent="WIyWlLk6GJQsqaUBKTNV-0" />
        <mxCell id="BcG3yipcf5rLyP6MsLef-3" style="edgeStyle=none;rounded=0;orthogonalLoop=1;jettySize=auto;html=1;exitX=0;exitY=0.75;exitDx=0;exitDy=0;entryX=0.567;entryY=0;entryDx=0;entryDy=0;entryPerimeter=0;endArrow=none;endFill=0;" edge="1" parent="WIyWlLk6GJQsqaUBKTNV-1" source="BcG3yipcf5rLyP6MsLef-0" target="BcG3yipcf5rLyP6MsLef-1">
          <mxGeometry relative="1" as="geometry" />
        </mxCell>
        <mxCell id="BcG3yipcf5rLyP6MsLef-0" value="APP" style="rounded=1;whiteSpace=wrap;html=1;" vertex="1" parent="WIyWlLk6GJQsqaUBKTNV-1">
          <mxGeometry x="357" y="17" width="117" height="68" as="geometry" />
        </mxCell>
        <mxCell id="BcG3yipcf5rLyP6MsLef-1" value="Nav" style="rounded=1;whiteSpace=wrap;html=1;" vertex="1" parent="WIyWlLk6GJQsqaUBKTNV-1">
          <mxGeometry x="17" y="136" width="120" height="60" as="geometry" />
        </mxCell>
        <mxCell id="BcG3yipcf5rLyP6MsLef-4" style="rounded=0;orthogonalLoop=1;jettySize=auto;html=1;exitX=1;exitY=0;exitDx=0;exitDy=0;entryX=0.103;entryY=1.015;entryDx=0;entryDy=0;entryPerimeter=0;endArrow=none;endFill=0;" edge="1" parent="WIyWlLk6GJQsqaUBKTNV-1" source="BcG3yipcf5rLyP6MsLef-2" target="BcG3yipcf5rLyP6MsLef-0">
          <mxGeometry relative="1" as="geometry" />
        </mxCell>
        <mxCell id="BcG3yipcf5rLyP6MsLef-2" value="Footer" style="rounded=1;whiteSpace=wrap;html=1;" vertex="1" parent="WIyWlLk6GJQsqaUBKTNV-1">
          <mxGeometry x="153" y="136" width="120" height="60" as="geometry" />
        </mxCell>
        <mxCell id="BcG3yipcf5rLyP6MsLef-18" style="edgeStyle=none;rounded=0;orthogonalLoop=1;jettySize=auto;html=1;exitX=0.25;exitY=0;exitDx=0;exitDy=0;endArrow=none;endFill=0;dashed=1;" edge="1" parent="WIyWlLk6GJQsqaUBKTNV-1" source="BcG3yipcf5rLyP6MsLef-5" target="BcG3yipcf5rLyP6MsLef-0">
          <mxGeometry relative="1" as="geometry" />
        </mxCell>
        <mxCell id="BcG3yipcf5rLyP6MsLef-5" value="How To" style="rounded=1;whiteSpace=wrap;html=1;" vertex="1" parent="WIyWlLk6GJQsqaUBKTNV-1">
          <mxGeometry x="561" y="136" width="120" height="60" as="geometry" />
        </mxCell>
        <mxCell id="BcG3yipcf5rLyP6MsLef-13" style="edgeStyle=none;rounded=0;orthogonalLoop=1;jettySize=auto;html=1;exitX=0.75;exitY=0;exitDx=0;exitDy=0;endArrow=none;endFill=0;dashed=1;" edge="1" parent="WIyWlLk6GJQsqaUBKTNV-1" source="BcG3yipcf5rLyP6MsLef-6" target="BcG3yipcf5rLyP6MsLef-0">
          <mxGeometry relative="1" as="geometry" />
        </mxCell>
        <mxCell id="BcG3yipcf5rLyP6MsLef-6" value="Play" style="rounded=1;whiteSpace=wrap;html=1;" vertex="1" parent="WIyWlLk6GJQsqaUBKTNV-1">
          <mxGeometry x="294" y="136" width="120" height="60" as="geometry" />
        </mxCell>
        <mxCell id="BcG3yipcf5rLyP6MsLef-15" style="edgeStyle=none;rounded=0;orthogonalLoop=1;jettySize=auto;html=1;exitX=0.25;exitY=0;exitDx=0;exitDy=0;entryX=0.59;entryY=0.985;entryDx=0;entryDy=0;entryPerimeter=0;endArrow=none;endFill=0;dashed=1;" edge="1" parent="WIyWlLk6GJQsqaUBKTNV-1" source="BcG3yipcf5rLyP6MsLef-7" target="BcG3yipcf5rLyP6MsLef-0">
          <mxGeometry relative="1" as="geometry" />
        </mxCell>
        <mxCell id="BcG3yipcf5rLyP6MsLef-16" style="edgeStyle=none;rounded=0;orthogonalLoop=1;jettySize=auto;html=1;exitX=0.5;exitY=1;exitDx=0;exitDy=0;entryX=0.5;entryY=0;entryDx=0;entryDy=0;endArrow=none;endFill=0;" edge="1" parent="WIyWlLk6GJQsqaUBKTNV-1" source="BcG3yipcf5rLyP6MsLef-7" target="BcG3yipcf5rLyP6MsLef-9">
          <mxGeometry relative="1" as="geometry" />
        </mxCell>
        <mxCell id="BcG3yipcf5rLyP6MsLef-7" value="Results" style="rounded=1;whiteSpace=wrap;html=1;" vertex="1" parent="WIyWlLk6GJQsqaUBKTNV-1">
          <mxGeometry x="425" y="136" width="120" height="60" as="geometry" />
        </mxCell>
        <mxCell id="BcG3yipcf5rLyP6MsLef-19" style="edgeStyle=none;rounded=0;orthogonalLoop=1;jettySize=auto;html=1;exitX=0.25;exitY=0;exitDx=0;exitDy=0;entryX=1;entryY=0.75;entryDx=0;entryDy=0;dashed=1;endArrow=none;endFill=0;" edge="1" parent="WIyWlLk6GJQsqaUBKTNV-1" source="BcG3yipcf5rLyP6MsLef-8" target="BcG3yipcf5rLyP6MsLef-0">
          <mxGeometry relative="1" as="geometry" />
        </mxCell>
        <mxCell id="BcG3yipcf5rLyP6MsLef-8" value="Home/ Landing&amp;nbsp;" style="rounded=1;whiteSpace=wrap;html=1;" vertex="1" parent="WIyWlLk6GJQsqaUBKTNV-1">
          <mxGeometry x="697" y="136" width="120" height="60" as="geometry" />
        </mxCell>
        <mxCell id="BcG3yipcf5rLyP6MsLef-9" value="CommentFeed" style="rounded=1;whiteSpace=wrap;html=1;" vertex="1" parent="WIyWlLk6GJQsqaUBKTNV-1">
          <mxGeometry x="425" y="238" width="120" height="60" as="geometry" />
        </mxCell>
        <mxCell id="BcG3yipcf5rLyP6MsLef-17" style="edgeStyle=none;rounded=0;orthogonalLoop=1;jettySize=auto;html=1;exitX=0.5;exitY=0;exitDx=0;exitDy=0;entryX=0.5;entryY=1;entryDx=0;entryDy=0;endArrow=none;endFill=0;" edge="1" parent="WIyWlLk6GJQsqaUBKTNV-1" source="BcG3yipcf5rLyP6MsLef-10" target="BcG3yipcf5rLyP6MsLef-9">
          <mxGeometry relative="1" as="geometry" />
        </mxCell>
        <mxCell id="BcG3yipcf5rLyP6MsLef-10" value="CommentForm" style="rounded=1;whiteSpace=wrap;html=1;" vertex="1" parent="WIyWlLk6GJQsqaUBKTNV-1">
          <mxGeometry x="425" y="340" width="120" height="60" as="geometry" />
        </mxCell>
        <mxCell id="BcG3yipcf5rLyP6MsLef-14" style="edgeStyle=none;rounded=0;orthogonalLoop=1;jettySize=auto;html=1;exitX=0.5;exitY=0;exitDx=0;exitDy=0;endArrow=none;endFill=0;" edge="1" parent="WIyWlLk6GJQsqaUBKTNV-1" source="BcG3yipcf5rLyP6MsLef-11" target="BcG3yipcf5rLyP6MsLef-6">
          <mxGeometry relative="1" as="geometry" />
        </mxCell>
        <mxCell id="BcG3yipcf5rLyP6MsLef-11" value="Questions" style="rounded=1;whiteSpace=wrap;html=1;" vertex="1" parent="WIyWlLk6GJQsqaUBKTNV-1">
          <mxGeometry x="294" y="238" width="120" height="60" as="geometry" />
        </mxCell>
      </root>
    </mxGraphModel>
  </diagram>
</mxfile>
